<svg width="8" height="6" viewBox="0 0 8 6" fill="none" xmlns="http://www.w3.org/2000/svg">
<path d="M3.99831 3.77053L6.99122 0.777754C7.07343 0.695347 7.18335 0.650014 7.30055 0.650014C7.41782 0.650014 7.52767 0.695347 7.61002 0.777754L7.87213 1.04C7.9546 1.12227 8 1.23226 8 1.34946C8 1.46666 7.9546 1.57652 7.87213 1.65886L4.30881 5.22224C4.22621 5.30491 4.11584 5.35018 3.9985 5.34985C3.88065 5.35018 3.77041 5.30497 3.68774 5.22224L0.12787 1.66218C0.0453985 1.57984 3.07243e-07 1.46998 3.02117e-07 1.35271C2.96994e-07 1.23551 0.0453985 1.12566 0.12787 1.04325L0.389984 0.781072C0.560586 0.61047 0.838309 0.61047 1.00885 0.781071L3.99831 3.77053Z" fill="black"/>
</svg>
